<svg width="18" height="18" viewBox="0 0 18 18" fill="none" xmlns="http://www.w3.org/2000/svg">
<path fill-rule="evenodd" clip-rule="evenodd" d="M6 0.749817H12C13.2426 0.749817 14.25 1.75718 14.25 2.99982V14.9998C14.25 16.2425 13.2426 17.2498 12 17.2498H6C4.75736 17.2498 3.75 16.2425 3.75 14.9998V2.99982C3.75 1.75718 4.75736 0.749817 6 0.749817ZM12.75 3.74982C12.75 3.3356 12.4142 2.99982 12 2.99982H6C5.58579 2.99982 5.25 3.3356 5.25 3.74982V14.2498C5.25 14.664 5.58579 14.9998 6 14.9998H12C12.4142 14.9998 12.75 14.664 12.75 14.2498V3.74982Z" fill="white"/>
</svg>
