<svg width="34" height="34" viewBox="0 0 34 34" fill="none" xmlns="http://www.w3.org/2000/svg">
<path fill-rule="evenodd" clip-rule="evenodd" d="M28.3335 5.66669H5.66683C4.10202 5.66669 2.8335 6.93521 2.8335 8.50002V25.5C2.8335 27.0648 4.10202 28.3334 5.66683 28.3334H28.3335C29.8983 28.3334 31.1668 27.0648 31.1668 25.5V8.50002C31.1668 6.93521 29.8983 5.66669 28.3335 5.66669ZM28.3335 8.50002V12.6084L17.921 19.9042C17.3673 20.2885 16.6331 20.2885 16.0793 19.9042L5.66683 12.6084V8.50002H28.3335ZM5.66683 15.5834V25.5H28.3335V15.5834L19.3377 21.8734C17.9338 22.8547 16.0665 22.8547 14.6627 21.8734L5.66683 15.5834Z" fill="#181818"/>
</svg>
