<svg width="34" height="34" viewBox="0 0 34 34" fill="none" xmlns="http://www.w3.org/2000/svg">
<path d="M23.3748 8.5H19.1248C18.3424 8.5 17.7082 9.13426 17.7082 9.91667V14.1667H23.3748C23.536 14.1631 23.6888 14.2381 23.7846 14.3677C23.8804 14.4973 23.9072 14.6653 23.8565 14.8183L22.8082 17.935C22.7116 18.2211 22.4443 18.4144 22.1423 18.4167H17.7082V29.0417C17.7082 29.4329 17.391 29.75 16.9998 29.75H13.4582C13.067 29.75 12.7498 29.4329 12.7498 29.0417V18.4167H10.6248C10.2336 18.4167 9.9165 18.0995 9.9165 17.7083V14.875C9.9165 14.4838 10.2336 14.1667 10.6248 14.1667H12.7498V9.91667C12.7498 6.78705 15.2869 4.25 18.4165 4.25H23.3748C23.766 4.25 24.0832 4.56713 24.0832 4.95833V7.79167C24.0832 8.18287 23.766 8.5 23.3748 8.5Z" fill="#181818"/>
</svg>
