<svg width="150" height="150" viewBox="0 0 150 150" fill="none" xmlns="http://www.w3.org/2000/svg">
<g clip-path="url(#clip0)">
<path d="M140.183 52.6034C142.894 48.2481 145.095 43.0386 145.33 37.4021C145.522 32.8122 143.824 28.2744 140.672 24.9524C137.561 21.6738 133.38 19.8413 128.902 19.793C128.84 19.7924 128.779 19.7921 128.717 19.7921C124.774 19.7921 121.043 21.1579 118.053 23.6666C105.779 14.1964 90.5522 8.99766 75.0003 8.99766C64.8492 8.99766 54.7526 11.214 45.5854 15.4189C45.2481 11.6016 43.6315 7.95147 40.9831 5.16035C37.8718 1.88145 33.6917 0.0495117 29.2134 0.00117188C29.1507 0.000292969 29.09 0 29.0282 0C24.619 0 20.4721 1.70332 17.3338 4.80791C14.1516 7.95586 12.3987 12.1553 12.3987 16.6315C12.3987 24.0305 15.8716 30.7515 19.6269 35.8564C15.2209 41.4381 11.7029 47.6136 9.16084 54.2347C8.72666 55.3661 9.2918 56.6353 10.4227 57.0697C10.6816 57.1688 10.9471 57.2159 11.2087 57.2159C12.0905 57.2159 12.9226 56.6801 13.2577 55.8076C15.501 49.9646 18.5561 44.4914 22.3526 39.5036C22.3002 40.0204 22.2665 40.5407 22.2665 41.0584V51.7201C22.2665 53.8204 23.4226 55.7294 25.2835 56.7032C26.1064 57.1339 27.0009 57.3466 27.8924 57.3466C29.0162 57.3466 30.1354 57.0076 31.0978 56.3396L38.9622 50.8793C41.163 49.3515 43.7423 48.5438 46.4221 48.5438H56.5435C60.4693 48.5438 64.1602 47.015 66.9363 44.2392L76.9242 34.2513C80.2802 30.895 80.4656 25.4643 77.3458 21.8868L72.4822 16.3102C71.7964 15.5238 71.5201 14.4747 71.6845 13.4763C72.7884 13.4206 73.8937 13.386 75.0003 13.386C89.4595 13.386 103.617 18.1799 115.074 26.9153C113.135 29.6836 112.088 32.9701 112.088 36.4239C112.088 39.4646 112.678 42.3891 113.63 45.1359C112.982 49.9093 113.681 54.7526 115.656 59.1489L119.925 68.6534C122.211 73.7432 127.294 77.0323 132.874 77.0323C135.705 77.0323 138.444 76.1971 140.794 74.6177L140.93 74.5263C141.052 76.1736 141.113 77.8315 141.113 79.4991C141.113 115.954 111.455 145.612 75 145.612C38.545 145.612 8.88691 115.954 8.88691 79.4985C8.88691 74.3821 9.47314 69.2865 10.6295 64.3532C10.9061 63.1731 10.1739 61.9928 8.99414 61.7162C7.81436 61.4382 6.6334 62.1715 6.35713 63.3516C5.12373 68.613 4.49854 74.0458 4.49854 79.4988C4.49854 98.3306 11.8321 116.035 25.1481 129.351C38.4639 142.667 56.1683 150 75 150C93.8317 150 111.536 142.667 124.852 129.351C138.168 116.035 145.501 98.33 145.501 79.4985C145.501 70.1795 143.709 61.1361 140.183 52.6034ZM20.4202 7.92744C22.7303 5.64199 25.783 4.38838 29.0297 4.38838C29.0748 4.38838 29.1202 4.38867 29.1656 4.38926C32.4463 4.42441 35.5125 5.7709 37.7994 8.18086C40.1391 10.6465 41.3994 14.0165 41.257 17.4272C40.8489 27.2048 32.9903 36.0059 29.6303 39.3354C29.2995 39.6633 28.7616 39.6639 28.4326 39.3375C24.9313 35.8679 16.7871 26.7097 16.7871 16.6315C16.7871 13.3362 18.0773 10.2451 20.4202 7.92744ZM69.1746 19.1941L74.0385 24.7711C75.6472 26.6159 75.5519 29.417 73.8208 31.1479L63.8329 41.1357C61.8858 43.0831 59.2972 44.1554 56.5435 44.1554H46.4221C42.8437 44.1554 39.3987 45.2341 36.4597 47.2746L28.5952 52.7347C28.0412 53.1202 27.5177 52.9189 27.3179 52.8146C27.1187 52.7104 26.6555 52.3948 26.6555 51.7201V43.3983C27.3987 43.7745 28.2141 43.9652 29.0303 43.9652C30.3662 43.9652 31.7024 43.461 32.7199 42.4529C36.9519 38.2588 43.8577 30.104 45.3636 20.3927C52.1924 16.9646 59.6341 14.7434 67.258 13.8442C67.2117 15.7673 67.8644 17.6915 69.1746 19.1941ZM128.719 24.1802C128.764 24.1802 128.809 24.1805 128.854 24.1811C132.135 24.2162 135.202 25.563 137.488 27.9729C139.828 30.4386 141.088 33.8086 140.946 37.219C140.538 46.9966 132.679 55.7977 129.319 59.1275C128.989 59.4554 128.451 59.456 128.122 59.1296C124.62 55.6597 116.476 46.5015 116.476 36.4236C116.476 33.1283 117.767 30.0369 120.11 27.7192C122.419 25.4341 125.472 24.1802 128.719 24.1802ZM138.345 70.9752C136.722 72.0665 134.83 72.6434 132.874 72.6434C129.019 72.6434 125.507 70.3711 123.928 66.8546L119.659 57.3501C119.285 56.5175 118.969 55.6649 118.706 54.7989C120.87 57.8745 123.189 60.4201 125.033 62.2468C126.049 63.2534 127.383 63.7567 128.718 63.7567C130.054 63.7567 131.391 63.2525 132.408 62.2444C133.797 60.8678 135.475 59.0616 137.155 56.9165C138.655 61.0377 139.733 65.2772 140.381 69.6064L138.345 70.9752Z" fill="#181818"/>
<path d="M128.72 46.2243C133.825 46.2243 137.978 42.0709 137.978 36.9659C137.978 31.8609 133.825 27.7075 128.72 27.7075C123.615 27.7075 119.461 31.8609 119.461 36.9659C119.461 42.0709 123.615 46.2243 128.72 46.2243ZM128.72 32.0956C131.405 32.0956 133.59 34.2803 133.59 36.9656C133.59 39.651 131.405 41.8356 128.72 41.8356C126.034 41.8356 123.85 39.651 123.85 36.9656C123.85 34.2803 126.034 32.0956 128.72 32.0956Z" fill="#181818"/>
<path d="M95.2667 47.978C92.1554 44.6991 87.9756 42.8666 83.497 42.8183C83.4349 42.8177 83.3742 42.8174 83.3124 42.8174C78.9032 42.8174 74.7563 44.5207 71.618 47.6253C69.2449 49.9729 67.6682 52.9052 67.0189 56.1006C61.9793 55.8817 57.0911 58.2217 54.1198 62.4193L46.7473 72.8338C43.87 76.8979 43.5117 82.1651 45.7324 86.5485C44.7946 88.6512 44.2972 90.9451 44.2972 93.319C44.2972 102.984 50.2213 111.49 54.9615 116.75L54.4843 129.72C54.3706 132.813 55.8079 135.732 58.3292 137.527C59.9159 138.657 61.7818 139.223 63.6489 139.223C65.48 139.223 67.3122 138.678 68.8811 137.588L89.0783 123.557C92.2233 121.372 94.9392 118.679 97.1511 115.555L103.249 106.942C103.949 105.953 103.715 104.583 102.725 103.883C101.737 103.183 100.367 103.417 99.6668 104.406L93.5692 113.019C91.6524 115.727 89.2992 118.06 86.574 119.953L66.3768 133.985C64.7238 135.132 62.5131 135.12 60.8745 133.953C59.5597 133.016 58.81 131.494 58.8694 129.881L59.2269 120.366C59.7771 120.553 60.3516 120.653 60.9275 120.653C62.2632 120.653 63.5997 120.149 64.6169 119.14C69.2473 114.551 77.0836 105.222 77.5392 94.2979C77.7305 89.7076 76.0324 85.1698 72.8801 81.8479C69.7688 78.5689 65.5887 76.7367 61.1101 76.6884C56.6446 76.6345 52.413 78.3475 49.2313 81.4957C49.0831 81.6422 48.9413 81.7934 48.7995 81.9445C48.4371 79.6811 48.948 77.3191 50.3282 75.3694L57.7008 64.955C59.7788 62.02 63.184 60.3738 66.7052 60.4849C67.1769 71.3481 74.9408 80.6288 79.6269 85.2724C80.6432 86.2793 81.9776 86.7826 83.3127 86.7826C84.6489 86.7826 85.9852 86.2787 87.0026 85.2703C88.9131 83.3769 91.3685 80.6748 93.627 77.3886L105.012 85.4484C106.449 86.4656 107.404 87.9812 107.701 89.7167C107.997 91.4517 107.601 93.1989 106.584 94.6354L104.983 96.8965C104.283 97.8855 104.517 99.2549 105.506 99.9554C105.891 100.228 106.333 100.359 106.772 100.359C107.459 100.359 108.137 100.037 108.564 99.4324L110.165 97.1713C111.86 94.7777 112.521 91.8674 112.026 88.9767C111.532 86.0862 109.941 83.5611 107.548 81.8669L95.9397 73.6494C98.0953 69.7289 99.7242 65.2327 99.9249 60.4277C100.117 55.8378 98.4191 51.3 95.2667 47.978ZM60.9281 81.0756C60.9732 81.0756 61.0187 81.0759 61.0635 81.0765C64.3444 81.1116 67.4107 82.4584 69.6976 84.8684C72.0372 87.334 73.2976 90.704 73.1555 94.1147C72.7474 103.893 64.8885 112.693 61.5281 116.023C61.198 116.351 60.6606 116.351 60.3311 116.025C56.8295 112.555 48.6855 103.398 48.6855 93.319C48.6855 90.024 49.9758 86.9329 52.3184 84.6149C54.6287 82.3292 57.6814 81.0756 60.9281 81.0756ZM83.9142 82.1531C83.584 82.4812 83.0461 82.4818 82.7165 82.1552C79.2152 78.6853 71.0713 69.5271 71.0713 59.4492C71.0713 56.1539 72.3615 53.0625 74.7044 50.7448C77.0145 48.4594 80.0672 47.2058 83.3139 47.2058C83.359 47.2058 83.4044 47.2061 83.4495 47.2066C86.7305 47.2418 89.7967 48.5886 92.0836 50.9985C94.4233 53.4642 95.6836 56.8342 95.5412 60.2446C95.1331 70.0225 87.2742 78.8232 83.9142 82.1531Z" fill="#181818"/>
<path d="M90.3789 57.7972C89.1669 57.7972 88.1846 58.7795 88.1846 59.9915C88.1846 62.6769 85.9999 64.8616 83.3146 64.8616C80.6292 64.8616 78.4445 62.6769 78.4445 59.9915C78.4445 57.3062 80.6292 55.1215 83.3146 55.1215C83.6403 55.1215 83.9655 55.1538 84.2811 55.2173C85.4705 55.4543 86.626 54.6859 86.8647 53.4982C87.1032 52.3099 86.3336 51.1536 85.1456 50.9145C84.5459 50.7941 83.9298 50.7332 83.3146 50.7332C78.2093 50.7332 74.0562 54.8866 74.0562 59.9915C74.0562 65.0965 78.2096 69.25 83.3146 69.25C88.4198 69.25 92.573 65.0965 92.573 59.9915C92.5733 58.7792 91.5909 57.7972 90.3789 57.7972Z" fill="#181818"/>
<path d="M60.9288 103.12C66.0341 103.12 70.1872 98.9662 70.1872 93.8612C70.1872 88.7562 66.0338 84.6028 60.9288 84.6028C55.8238 84.6028 51.6704 88.7562 51.6704 93.8612C51.6704 98.9662 55.8235 103.12 60.9288 103.12ZM60.9288 88.9909C63.6142 88.9909 65.7988 91.1755 65.7988 93.8609C65.7988 96.5462 63.6142 98.7309 60.9288 98.7309C58.2435 98.7309 56.0588 96.5462 56.0588 93.8609C56.0588 91.1758 58.2435 88.9909 60.9288 88.9909Z" fill="#181818"/>
<path d="M38.2891 17.1739C38.2891 12.0687 34.1356 7.91553 29.0307 7.91553C23.9257 7.91553 19.772 12.0689 19.772 17.1739C19.772 22.2789 23.9254 26.432 29.0304 26.432C34.1354 26.432 38.2891 22.2789 38.2891 17.1739ZM24.1606 17.1739C24.1606 14.4886 26.3453 12.3039 29.0307 12.3039C31.716 12.3039 33.9007 14.4886 33.9007 17.1739C33.9007 19.8593 31.716 22.0437 29.0307 22.0437C26.3453 22.0437 24.1606 19.8593 24.1606 17.1739Z" fill="#181818"/>
</g>
<defs>
<clipPath id="clip0">
<rect width="150" height="150" fill="white"/>
</clipPath>
</defs>
</svg>
