<svg width="150" height="150" viewBox="0 0 150 150" fill="none" xmlns="http://www.w3.org/2000/svg">
<g clip-path="url(#clip0)">
<path d="M61.6288 132.975L61.1882 135.127L61.6128 132.972C60.4226 132.738 59.2667 133.512 59.0321 134.703C58.7975 135.894 59.5723 137.049 60.7636 137.283C60.767 137.284 60.8002 137.29 60.8037 137.291C60.9433 137.318 61.0817 137.331 61.2191 137.331C62.2525 137.331 63.1737 136.599 63.374 135.546C63.6029 134.354 62.8212 133.202 61.6288 132.975Z" fill="#181818"/>
<path d="M78.4283 133.681L78.6469 135.866L78.4214 133.682C77.214 133.805 76.3363 134.885 76.461 136.092C76.5766 137.223 77.5311 138.065 78.6434 138.065C78.7189 138.065 78.7956 138.06 78.8712 138.053L78.9318 138.047C80.1334 137.906 80.986 136.822 80.8521 135.62C80.7171 134.42 79.6299 133.555 78.4283 133.681Z" fill="#181818"/>
<path d="M70.0172 133.958C70.0172 133.958 69.9863 133.956 69.9851 133.956C68.7743 133.901 67.7627 134.842 67.7077 136.054C67.654 137.266 68.6061 138.293 69.818 138.347C69.8524 138.35 69.8856 138.35 69.9199 138.35C71.0872 138.35 72.0599 137.431 72.1126 136.252C72.1675 135.04 71.2302 134.012 70.0172 133.958Z" fill="#181818"/>
<path d="M53.5127 130.742L53.4852 130.731C52.3431 130.322 51.098 130.919 50.6883 132.061C50.2774 133.203 50.884 134.467 52.0261 134.878C52.2721 134.966 52.5228 135.007 52.7688 135.007C53.6695 135.007 54.5152 134.45 54.8368 133.552C55.2476 132.41 54.6548 131.151 53.5127 130.742Z" fill="#181818"/>
<path d="M86.721 132.143L87.2623 134.272L86.7142 132.145C85.5388 132.447 84.8316 133.645 85.1337 134.821C85.3889 135.812 86.2816 136.471 87.26 136.471C87.442 136.471 87.6262 136.448 87.8105 136.4C87.8197 136.397 87.8586 136.387 87.8689 136.385C89.035 136.067 89.7171 134.869 89.4058 133.7C89.0945 132.533 87.8917 131.838 86.721 132.143Z" fill="#181818"/>
<path d="M94.6643 129.372L95.5352 131.388L94.6575 129.374C93.5451 129.859 93.0359 131.154 93.5199 132.266C93.8804 133.093 94.6884 133.587 95.5364 133.587C95.8282 133.587 96.1269 133.527 96.4119 133.404C96.421 133.399 96.4565 133.384 96.4656 133.38C97.5677 132.882 98.0541 131.591 97.562 130.486C97.0699 129.381 95.7721 128.885 94.6643 129.372Z" fill="#181818"/>
<path d="M45.1192 29.2089C45.4717 29.2089 45.8299 29.1242 46.1607 28.948C47.2318 28.3769 47.6358 27.046 47.0647 25.9748C46.4937 24.9048 45.1639 24.4985 44.0927 25.0707L44.0664 25.0845C42.9964 25.6555 42.6038 26.9796 43.1749 28.0508C43.5686 28.7901 44.333 29.2089 45.1192 29.2089Z" fill="#181818"/>
<path d="M19.7033 53.7507C20.0295 53.9213 20.3785 54.0025 20.723 54.0025C21.5138 54.0025 22.2782 53.5745 22.6708 52.8249L22.7097 52.7482C23.2453 51.6588 22.7966 50.3415 21.7072 49.8071C20.6257 49.2738 19.3188 49.7133 18.7763 50.7879C18.2156 51.8613 18.6299 53.1877 19.7033 53.7507Z" fill="#181818"/>
<path d="M16.6101 62.0169C16.8436 62.0958 17.0805 62.1336 17.3151 62.1336C18.2306 62.1336 19.0855 61.5557 19.3956 60.6401L19.4242 60.5532C19.7813 59.3939 19.1301 58.1636 17.9697 57.8077C16.8195 57.453 15.5984 58.0915 15.2311 59.2359C14.8454 60.3838 15.4623 61.6289 16.6101 62.0169Z" fill="#181818"/>
<path d="M24.0384 46.0637C24.4287 46.3475 24.8807 46.4848 25.3293 46.4848C26.008 46.4848 26.6786 46.1701 27.1078 45.5796L27.1364 45.5407C27.8413 44.5542 27.6113 43.1855 26.6271 42.4805C25.6418 41.7744 24.2685 42.001 23.5612 42.9852L25.3316 44.2876L23.5544 42.9944C22.8402 43.9763 23.0577 45.3507 24.0384 46.0637Z" fill="#181818"/>
<path d="M37.6604 33.9546C38.1216 33.9546 38.5862 33.8093 38.9833 33.5072C39.9629 32.7908 40.1746 31.4163 39.4582 30.4367C38.7407 29.4571 37.3663 29.2454 36.3878 29.9618L36.3329 30.0018C35.367 30.7354 35.1747 32.1167 35.9083 33.0837C36.3409 33.6537 36.9966 33.9546 37.6604 33.9546Z" fill="#181818"/>
<path d="M14.6486 95.3395C14.9393 96.2836 15.8067 96.889 16.7451 96.889C16.9591 96.889 17.1777 96.857 17.3929 96.7906C18.5464 96.437 19.1976 95.2147 18.852 94.0589C18.5213 92.9053 17.3254 92.2278 16.1615 92.5448C14.9908 92.8641 14.3007 94.0726 14.62 95.2433C14.6268 95.2662 14.6417 95.3166 14.6486 95.3395Z" fill="#181818"/>
<path d="M31.0227 39.7454C31.5938 39.7454 32.1649 39.5245 32.5963 39.085C33.4535 38.2267 33.4535 36.8351 32.5963 35.978C31.738 35.1197 30.3464 35.1197 29.4881 35.978L29.4515 36.0146C28.6023 36.8809 28.6195 38.2702 29.4858 39.1194C29.9127 39.5382 30.4677 39.7454 31.0227 39.7454Z" fill="#181818"/>
<path d="M17.0771 85.7598C16.9226 84.5662 15.832 83.7193 14.6372 83.8612C13.4333 84.0054 12.5727 85.0983 12.7157 86.3034L12.7283 86.3915C12.8885 87.4833 13.8258 88.2661 14.8981 88.2661C15.0034 88.2661 15.111 88.258 15.2197 88.242C16.4156 88.0681 17.2453 86.9557 17.0771 85.7598Z" fill="#181818"/>
<path d="M14.3167 79.4666C14.3396 79.4666 14.3614 79.4677 14.3831 79.4677C15.5664 79.4677 16.5438 78.5259 16.5781 77.3346L16.5804 77.2407C16.5804 76.0265 15.5962 75.0435 14.3831 75.0435C13.178 75.0435 12.2007 76.0116 12.1858 77.2121C12.1538 78.4229 13.1071 79.4311 14.3167 79.4666Z" fill="#181818"/>
<path d="M14.7982 70.6548C14.9298 70.6776 15.0592 70.6891 15.1885 70.6891C16.2322 70.6891 17.158 69.9418 17.3491 68.8786C17.3548 68.8466 17.3594 68.8145 17.364 68.7825C17.5414 67.582 16.7117 66.4651 15.5101 66.2888C14.3233 66.1126 13.2121 66.9286 13.021 68.1119C12.8127 69.3044 13.6069 70.4408 14.7982 70.6548Z" fill="#181818"/>
<path d="M118.447 46.7572C118.873 47.3752 119.557 47.7059 120.255 47.7059C120.685 47.7059 121.119 47.58 121.499 47.3179C122.498 46.6313 122.751 45.2626 122.065 44.2624L120.238 45.4846L122.058 44.2521C121.376 43.2473 120.009 42.9852 119.006 43.6661C118.001 44.3471 117.739 45.7135 118.42 46.7183L118.447 46.7572Z" fill="#181818"/>
<path d="M129.668 68.8682C128.462 69.0032 127.595 70.0915 127.731 71.2977L127.742 71.3927C127.899 72.4879 128.84 73.2787 129.916 73.2787C130.019 73.2787 130.124 73.2719 130.229 73.257C131.42 73.0865 132.251 71.989 132.097 70.7988C131.958 69.596 130.867 68.7331 129.668 68.8682Z" fill="#181818"/>
<path d="M125.96 62.6679L125.97 62.6965C126.251 63.6544 127.127 64.2747 128.076 64.2747C128.281 64.2747 128.49 64.246 128.697 64.1842C129.862 63.8421 130.528 62.621 130.186 61.456L130.176 61.4274C129.834 60.2624 128.613 59.5963 127.448 59.9396C126.284 60.2818 125.618 61.5029 125.96 62.6679Z" fill="#181818"/>
<path d="M122.856 54.4523C123.24 55.2316 124.024 55.686 124.838 55.686C125.162 55.686 125.492 55.6139 125.802 55.4605C126.89 54.9249 127.342 53.6157 126.806 52.5263L124.814 53.4544L126.803 52.5217C126.288 51.4231 124.98 50.9504 123.882 51.4654C122.783 51.9804 122.309 53.2884 122.824 54.3871L122.856 54.4523Z" fill="#181818"/>
<path d="M112.913 39.8954C113.343 40.3348 113.912 40.5546 114.482 40.5546C115.037 40.5546 115.592 40.3463 116.02 39.9263C116.881 39.084 116.9 37.7073 116.07 36.8398C115.247 35.9529 113.86 35.8991 112.97 36.7208C112.079 37.5436 112.024 38.9341 112.846 39.8256L112.913 39.8954Z" fill="#181818"/>
<path d="M130.382 78.043C129.175 78.0121 128.164 78.9585 128.122 80.1659C128.067 81.3686 128.991 82.3929 130.194 82.4604C130.237 82.4627 130.277 82.4638 130.319 82.4638C131.476 82.4638 132.446 81.5586 132.511 80.3879L132.514 80.2975C132.549 79.0855 131.594 78.0784 130.382 78.043Z" fill="#181818"/>
<path d="M98.8616 29.1059L98.9143 29.1345C99.2416 29.3085 99.5929 29.3909 99.9385 29.3909C100.72 29.3909 101.477 28.9697 101.874 28.2316C102.446 27.1662 102.043 25.8341 100.981 25.2573L99.9179 27.1799L100.974 25.2527C99.9099 24.6691 98.5744 25.0593 97.9907 26.1236C97.4082 27.1868 97.7973 28.5234 98.8616 29.1059Z" fill="#181818"/>
<path d="M106.294 33.9249L106.328 33.9512C106.725 34.2522 107.191 34.3976 107.654 34.3976C108.318 34.3976 108.974 34.0977 109.406 33.5278C110.14 32.5608 109.95 31.1829 108.984 30.4493L108.969 30.439C108.007 29.6998 106.628 29.8806 105.889 30.843C105.149 31.8055 105.331 33.1856 106.294 33.9249Z" fill="#181818"/>
<path d="M148.644 111.308L138.329 100.975C137.452 100.096 136.285 99.6117 135.044 99.6117C133.803 99.6117 132.636 100.096 131.759 100.975L131.52 101.214L130.843 100.536C130.006 99.6975 129.358 98.7213 128.919 97.6581C128.88 97.5174 128.828 97.3801 128.762 97.2507C128.426 96.3055 128.251 95.2995 128.251 94.2661V91.3433C128.451 91.4486 128.669 91.5253 128.904 91.5653C129.03 91.5871 129.155 91.5974 129.278 91.5974C130.321 91.5974 131.243 90.8535 131.437 89.7961C131.671 88.6082 130.901 87.4535 129.712 87.2154C129.189 87.1113 128.672 87.2017 128.237 87.4374C128.102 84.3155 126.826 81.3995 124.606 79.1748L114.599 69.1509C112.354 66.9022 109.368 65.6639 106.192 65.6639C103.734 65.6639 101.392 66.4089 99.4171 67.7879L98.3551 66.7202V41.589C98.3551 38.5597 97.2553 35.6369 95.2595 33.3607C93.8393 31.7425 93.0576 29.6642 93.0576 27.5082V25.6668H93.2087C95.7699 25.6668 97.8539 23.5828 97.8539 21.0205V6.40411C97.8539 3.84178 95.7699 1.75781 93.2087 1.75781H52.1645C49.6033 1.75781 47.5193 3.84178 47.5193 6.40411V21.0205C47.5193 23.5828 49.6033 25.6668 52.1645 25.6668H52.5032V26.6304C52.5032 28.9993 51.582 31.2263 49.91 32.9006L45.48 37.3386C43.1293 39.6938 41.835 42.8238 41.835 46.154V60.3298C41.835 62.2559 42.2974 64.0743 43.111 65.6856C40.1974 65.8539 37.4817 67.0681 35.4012 69.1509L25.3944 79.1748C23.0438 81.53 21.7495 84.6611 21.7495 87.9902V94.2661C21.7495 96.635 20.8294 98.8621 19.1574 100.536L18.4879 101.207C18.4845 101.209 18.4822 101.212 18.4799 101.214L18.2419 100.975C17.3641 100.096 16.198 99.6117 14.9563 99.6117C13.7157 99.6117 12.5484 100.096 11.6718 100.975L1.35612 111.308C-0.452042 113.119 -0.452042 116.067 1.35612 117.879L4.88892 121.416C5.74608 122.276 7.13768 122.277 7.99599 121.42C8.85429 120.561 8.85658 119.171 7.99828 118.311L4.46663 114.773C4.36707 114.673 4.36707 114.512 4.46663 114.412L14.7823 104.079C14.8785 103.983 15.0352 103.982 15.1314 104.079L16.9247 105.876H16.9258L41.4127 130.405L44.1559 133.154C44.2554 133.254 44.2554 133.415 44.1559 133.515L33.8413 143.848C33.744 143.945 33.5873 143.945 33.4911 143.848L14.2193 124.543C13.3621 123.683 11.9705 123.682 11.1122 124.539C10.2528 125.397 10.2516 126.788 11.1088 127.647L30.3818 146.952C31.2584 147.831 32.4257 148.315 33.6674 148.315C34.9079 148.315 36.0741 147.831 36.9518 146.952L47.2664 136.62C49.0746 134.809 49.0746 131.861 47.2664 130.049L47.1542 129.937L48.4554 128.634C49.9752 127.111 51.9939 126.195 54.1397 126.057C57.1598 125.861 60.0014 124.572 62.1403 122.429L71.616 112.933C74.3488 112.215 76.4763 109.989 77.0542 107.201C78.0281 107.665 79.1164 107.926 80.2654 107.926C84.3979 107.926 87.7602 104.56 87.7602 100.422V95.2045C88.7054 95.636 89.7549 95.8786 90.8604 95.8786C94.9928 95.8786 98.354 92.5129 98.354 88.3747V72.9504L105.113 79.7424C105.542 80.1739 106.106 80.389 106.67 80.389C107.231 80.389 107.792 80.1762 108.221 79.7493C109.081 78.8933 109.084 77.5028 108.228 76.6422L102.593 70.9797C103.683 70.3789 104.913 70.0584 106.192 70.0584C108.192 70.0584 110.074 70.8389 111.488 72.2568L121.495 82.2796C123.017 83.8051 123.856 85.833 123.856 87.9902V94.2661C123.856 97.8081 125.233 101.137 127.732 103.641L128.414 104.324L125.227 107.517L105.951 126.827L104.876 125.75C104.865 125.74 104.854 125.728 104.843 125.718L104.654 125.528C102.379 123.249 99.3565 121.88 96.1452 121.671C94.1917 121.544 92.3538 120.711 90.9634 119.32L83.7433 112.138C82.8827 111.282 81.4911 111.286 80.6351 112.146C79.7802 113.007 79.7836 114.399 80.6442 115.253L87.8597 122.429C89.9986 124.572 92.8402 125.861 95.8614 126.057C98.0061 126.195 100.025 127.111 101.545 128.633L101.651 128.739C101.708 128.804 101.769 128.865 101.833 128.922L102.846 129.936L102.734 130.049C100.925 131.861 100.925 134.808 102.734 136.62L113.048 146.952C113.926 147.831 115.092 148.315 116.334 148.315C117.574 148.315 118.742 147.831 119.619 146.952L148.644 117.878C150.452 116.066 150.452 113.119 148.644 111.308ZM129.723 89.4585L129.682 89.4516L129.282 89.3703L129.723 89.4585ZM59.0298 119.324C57.6462 120.711 55.8083 121.544 53.8559 121.671C50.6435 121.88 47.6212 123.249 45.3461 125.528L44.0495 126.827L42.8822 125.657C42.8673 125.642 42.8524 125.626 42.8375 125.613L21.5858 104.324L22.2679 103.641C24.7673 101.137 26.144 97.8081 26.144 94.2661V87.9902C26.144 85.833 26.9817 83.8051 28.5049 82.2796L38.5117 72.2568C39.9261 70.8389 41.8076 70.0584 43.808 70.0584C45.0909 70.0584 46.3245 70.3812 47.4186 70.9865L41.7744 76.6399C40.9172 77.4982 40.9184 78.8898 41.7767 79.747C42.2058 80.175 42.7677 80.389 43.3296 80.389C43.8927 80.389 44.4557 80.1739 44.8849 79.7447L51.6266 72.9904V100.422C51.6266 104.56 54.9889 107.926 59.1213 107.926C60.2863 107.926 61.3895 107.658 62.3737 107.182C62.8201 109.36 64.2117 111.195 66.0976 112.241L59.0298 119.324ZM93.9606 88.3758C93.9606 90.0902 92.569 91.4852 90.8604 91.4852C89.1506 91.4852 87.7602 90.0902 87.7602 88.3758V63.866C87.7602 62.653 86.7771 61.6688 85.5629 61.6688C84.3487 61.6688 83.3656 62.653 83.3656 63.866V100.423C83.3656 102.137 81.9752 103.531 80.2654 103.531C78.7308 103.531 77.457 102.407 77.211 100.937V63.8409C77.211 62.6266 76.228 61.6436 75.0137 61.6436C74.6235 61.6436 74.2561 61.7466 73.938 61.9251C73.2433 62.2948 72.7707 63.0249 72.7707 63.866V100.422C72.7707 100.701 72.7867 100.975 72.8165 101.246V105.674C72.8165 107.388 71.426 108.783 69.7163 108.783C68.0077 108.783 66.6172 107.388 66.6172 105.674V63.8145C66.6172 62.6015 65.633 61.6173 64.4199 61.6173C63.2057 61.6173 62.2215 62.6015 62.2215 63.8145V100.422C62.2215 102.136 60.8311 103.531 59.1225 103.531C57.4127 103.531 56.0223 102.136 56.0223 100.422V59.5493C56.0223 58.3351 55.0381 57.3509 53.825 57.3509C52.6108 57.3509 51.6277 58.3351 51.6277 59.5493V67.1093C51.4435 67.1688 51.265 67.2523 51.099 67.3622C48.2574 66.2945 46.2296 63.5456 46.2296 60.3298V46.154C46.2296 43.9968 47.0684 41.9689 48.5905 40.4434L53.0205 36.0054C55.521 33.5014 56.8977 30.1723 56.8977 26.6304V25.6668H61.3152C62.5294 25.6668 63.5124 24.6826 63.5124 23.4695C63.5124 22.2553 62.5294 21.2723 61.3152 21.2723H52.1645C52.026 21.2723 51.9138 21.159 51.9138 21.0205V6.40411C51.9138 6.26564 52.026 6.15234 52.1645 6.15234H93.2076C93.3472 6.15234 93.4593 6.26564 93.4593 6.40411V21.0205C93.4593 21.1601 93.3472 21.2723 93.2076 21.2723H71.6309C70.4178 21.2723 69.4336 22.2553 69.4336 23.4695C69.4336 24.6826 70.4178 25.6668 71.6309 25.6668H88.6631V27.5082C88.6631 30.7308 89.8315 33.8379 91.9544 36.2595C93.2476 37.7335 93.9606 39.6263 93.9606 41.589V88.3758ZM145.533 114.773L116.509 143.848C116.461 143.897 116.402 143.921 116.334 143.921C116.266 143.921 116.208 143.897 116.159 143.848L105.844 133.515C105.745 133.415 105.745 133.254 105.844 133.154L107.505 131.49L107.506 131.489L124.355 114.611L134.869 104.079C134.965 103.982 135.122 103.982 135.218 104.079L145.533 114.412C145.633 114.512 145.633 114.673 145.533 114.773Z" fill="#181818"/>
<path d="M59.1214 11.3687C57.8317 11.3687 56.7822 12.4204 56.7822 13.7124C56.7822 15.0056 57.8317 16.0562 59.1214 16.0562C60.4123 16.0562 61.4617 15.0056 61.4617 13.7124C61.4617 12.4204 60.4123 11.3687 59.1214 11.3687Z" fill="#181818"/>
<path d="M135.762 111.53C134.471 111.53 133.422 112.581 133.422 113.873C133.422 115.165 134.471 116.217 135.762 116.217C137.052 116.217 138.101 115.165 138.101 113.873C138.101 112.581 137.052 111.53 135.762 111.53Z" fill="#181818"/>
<path d="M36.6165 133.946C36.6165 132.654 35.5671 131.602 34.2773 131.602C32.9864 131.602 31.937 132.654 31.937 133.946C31.937 135.238 32.9864 136.29 34.2773 136.29C35.5671 136.29 36.6165 135.238 36.6165 133.946Z" fill="#181818"/>
</g>
<defs>
<clipPath id="clip0">
<rect width="150" height="150" fill="white"/>
</clipPath>
</defs>
</svg>
