<svg width="150" height="150" viewBox="0 0 150 150" fill="none" xmlns="http://www.w3.org/2000/svg">
<path d="M148.886 44.1172C144.451 22.1364 128.576 7.93373 108.439 7.93373C97.8008 7.93373 86.276 12.0619 75.0117 19.8938C63.5908 11.7146 52.2776 7.56934 41.3606 7.56934C21.1112 7.56934 5.30301 21.9273 1.0905 44.1417C-5.08946 76.3511 14.5155 119.106 72.2494 142.014C72.2934 142.031 72.3374 142.047 72.3815 142.061C74.0591 142.718 75.9226 142.718 77.6003 142.061C77.6504 142.044 77.7006 142.026 77.7495 142.006C104.241 131.274 124.788 115.543 137.17 96.5149C148.041 79.8067 152.203 61.2045 148.89 44.1356L148.886 44.1172ZM132.972 93.7832C121.165 111.929 101.446 126.987 75.9471 137.333C75.6377 137.44 75.3161 137.512 74.9909 137.546C74.6619 137.511 74.3379 137.439 74.0261 137.33C19.0092 115.474 0.221101 75.2567 6.011 45.0796C7.87086 35.2691 12.1849 27.041 18.4859 21.2853C24.7209 15.5872 32.6311 12.5779 41.3606 12.5779C51.6442 12.5779 62.4549 16.7537 73.493 24.9879C74.3722 25.6434 75.5742 25.6507 76.4619 25.0075C87.3374 17.1144 98.395 12.9423 108.439 12.9423C117.146 12.9423 125.068 15.9393 131.347 21.613C137.656 27.3137 142.024 35.4367 143.974 45.1003C147.036 60.8841 143.128 78.1719 132.972 93.7832Z" fill="#181818"/>
<path d="M104.031 50.3315H90.9597V48.4936C90.9585 44.154 87.443 40.6336 83.1021 40.6274H66.8867C62.5471 40.6336 59.0303 44.154 59.0303 48.4936V50.3315H45.9575C41.6924 50.3315 38.3701 53.8715 38.3701 58.2772V95.368C38.3701 99.7749 41.6924 103.234 45.9575 103.234H104.031C108.296 103.234 111.62 99.7749 111.62 95.368V58.2772C111.62 53.8715 108.296 50.3315 104.031 50.3315ZM64.0389 48.4936C64.0364 46.9187 65.3118 45.6396 66.8867 45.636H83.1021C84.6783 45.6396 85.9524 46.9187 85.9512 48.4936V50.3315H64.0389V48.4936ZM104.031 98.2256H45.9575C44.4547 98.2256 43.3787 97.0126 43.3787 95.368V84.5585C44.1881 84.9217 45.0698 85.1002 45.9575 85.0782H104.031C104.919 85.1002 105.801 84.9229 106.611 84.5585V95.368C106.611 97.0126 105.535 98.2256 104.031 98.2256ZM106.611 77.0824C106.611 78.727 105.535 80.0697 104.031 80.0697H45.9575C44.4547 80.0697 43.3787 78.727 43.3787 77.0824V58.2772C43.3787 56.6325 44.4535 55.34 45.9575 55.34H104.031C105.534 55.34 106.611 56.6325 106.611 58.2772V77.0824Z" fill="#181818"/>
<path d="M80.0033 64.731H69.9862C68.602 64.731 67.4819 65.8523 67.4819 67.2352C67.4819 68.6182 68.602 69.7395 69.9862 69.7395H80.0033C81.3862 69.7395 82.5075 68.6182 82.5075 67.2352C82.5075 65.8523 81.3862 64.731 80.0033 64.731Z" fill="#181818"/>
</svg>
