<svg width="34" height="34" viewBox="0 0 34 34" fill="none" xmlns="http://www.w3.org/2000/svg">
<path fill-rule="evenodd" clip-rule="evenodd" d="M22.6667 4.25H11.3333C7.42132 4.25 4.25 7.42132 4.25 11.3333V22.6667C4.25 26.5787 7.42132 29.75 11.3333 29.75H22.6667C26.5787 29.75 29.75 26.5787 29.75 22.6667V11.3333C29.75 7.42132 26.5787 4.25 22.6667 4.25ZM27.2708 22.6667C27.2631 25.2062 25.2062 27.2631 22.6667 27.2708H11.3333C8.79375 27.2631 6.73695 25.2062 6.72917 22.6667V11.3333C6.73695 8.79375 8.79375 6.73695 11.3333 6.72917H22.6667C25.2062 6.73695 27.2631 8.79375 27.2708 11.3333V22.6667ZM23.7292 11.6875C24.5116 11.6875 25.1458 11.0532 25.1458 10.2708C25.1458 9.48843 24.5116 8.85417 23.7292 8.85417C22.9468 8.85417 22.3125 9.48843 22.3125 10.2708C22.3125 11.0532 22.9468 11.6875 23.7292 11.6875ZM17 10.625C13.4792 10.625 10.625 13.4792 10.625 17C10.625 20.5208 13.4792 23.375 17 23.375C20.5208 23.375 23.375 20.5208 23.375 17C23.3788 15.3081 22.7083 13.6844 21.512 12.488C20.3156 11.2917 18.6919 10.6212 17 10.625ZM13.1042 17C13.1042 19.1516 14.8484 20.8958 17 20.8958C19.1516 20.8958 20.8958 19.1516 20.8958 17C20.8958 14.8484 19.1516 13.1042 17 13.1042C14.8484 13.1042 13.1042 14.8484 13.1042 17Z" fill="#181818"/>
</svg>
