<svg width="18" height="18" viewBox="0 0 18 18" fill="none" xmlns="http://www.w3.org/2000/svg">
<path fill-rule="evenodd" clip-rule="evenodd" d="M15 7.49982C15 4.18611 12.3137 1.49982 9 1.49982C5.68629 1.49982 3 4.18611 3 7.49982C3 10.3084 4.37288 11.4125 5.64721 12.4373C6.48949 13.1147 7.28872 13.7574 7.62 14.8348L8.0025 15.9898C8.10975 16.3088 8.41639 16.5174 8.7525 16.4998H9.1725C9.50861 16.5174 9.81525 16.3088 9.9225 15.9898L10.305 14.8348C10.6634 13.7656 11.4709 13.1245 12.3169 12.4528C13.6133 11.4236 15 10.3226 15 7.49982ZM9 2.99982C6.51472 2.99982 4.5 5.01454 4.5 7.49982C4.5 9.59982 5.385 10.3048 6.615 11.2498C7.64911 11.9486 8.47356 12.9157 9 14.0473C9.52898 12.9173 10.3529 11.9509 11.385 11.2498C12.615 10.3048 13.5 9.59982 13.5 7.49982C13.5 5.01454 11.4853 2.99982 9 2.99982ZM10.5 7.49982C10.5 8.32824 9.82843 8.99982 9 8.99982C8.17157 8.99982 7.5 8.32824 7.5 7.49982C7.5 6.67139 8.17157 5.99982 9 5.99982C9.82843 5.99982 10.5 6.67139 10.5 7.49982Z" fill="white"/>
</svg>
