<svg width="110" height="82" viewBox="0 0 110 82" fill="none" xmlns="http://www.w3.org/2000/svg">
<rect x="42.2405" y="29.7215" width="25.2532" height="8.50633" fill="#FDEC41" stroke="black" stroke-width="2.12658"/>
<mask id="path-2-inside-1" fill="white">
<path fill-rule="evenodd" clip-rule="evenodd" d="M76 5H34V47H76V5ZM66.4303 14.5696H43.5696V37.4304H66.4303V14.5696Z"/>
</mask>
<path fill-rule="evenodd" clip-rule="evenodd" d="M76 5H34V47H76V5ZM66.4303 14.5696H43.5696V37.4304H66.4303V14.5696Z" fill="#A7EAF3"/>
<path d="M34 5V3.13924H32.1392V5H34ZM76 5H77.8608V3.13924H76V5ZM34 47H32.1392V48.8608H34V47ZM76 47V48.8608H77.8608V47H76ZM43.5696 14.5696V12.7089H41.7088V14.5696H43.5696ZM66.4303 14.5696H68.2911V12.7089H66.4303V14.5696ZM43.5696 37.4304H41.7088V39.2911H43.5696V37.4304ZM66.4303 37.4304V39.2911H68.2911V37.4304H66.4303ZM34 6.86076H76V3.13924H34V6.86076ZM35.8608 47V5H32.1392V47H35.8608ZM76 45.1392H34V48.8608H76V45.1392ZM74.1392 5V47H77.8608V5H74.1392ZM43.5696 16.4304H66.4303V12.7089H43.5696V16.4304ZM45.4303 37.4304V14.5696H41.7088V37.4304H45.4303ZM66.4303 35.5696H43.5696V39.2911H66.4303V35.5696ZM64.5696 14.5696V37.4304H68.2911V14.5696H64.5696Z" fill="black" mask="url(#path-2-inside-1)"/>
<path d="M54.2026 12.7089V6.86084H74.1393V45.1393L68.2912 39.2912V12.7089H54.2026Z" fill="#003B9F"/>
<path d="M35.8608 6.86084L41.7089 12.7089H54.2026V6.86084H35.8608Z" fill="#FF8761"/>
<circle cx="54.9999" cy="21.4811" r="5.05063" fill="#FFB800"/>
<path d="M10.68 53.6C11.44 53.6 12.1 53.728 12.66 53.984C13.22 54.232 13.652 54.592 13.956 55.064C14.26 55.528 14.412 56.076 14.412 56.708C14.412 57.34 14.26 57.888 13.956 58.352C13.652 58.816 13.22 59.176 12.66 59.432C12.1 59.68 11.44 59.804 10.68 59.804H9.216V62H6.84V53.6H10.68ZM10.536 57.932C11.024 57.932 11.392 57.828 11.64 57.62C11.888 57.404 12.012 57.1 12.012 56.708C12.012 56.316 11.888 56.012 11.64 55.796C11.392 55.58 11.024 55.472 10.536 55.472H9.216V57.932H10.536ZM19.2425 59.768H17.9465V62H15.5705V53.6H19.4105C20.1705 53.6 20.8305 53.728 21.3905 53.984C21.9505 54.232 22.3825 54.592 22.6865 55.064C22.9905 55.528 23.1425 56.076 23.1425 56.708C23.1425 57.316 22.9985 57.848 22.7105 58.304C22.4305 58.752 22.0265 59.104 21.4985 59.36L23.3105 62H20.7665L19.2425 59.768ZM20.7425 56.708C20.7425 56.316 20.6185 56.012 20.3705 55.796C20.1225 55.58 19.7545 55.472 19.2665 55.472H17.9465V57.932H19.2665C19.7545 57.932 20.1225 57.828 20.3705 57.62C20.6185 57.404 20.7425 57.1 20.7425 56.708ZM31.6773 61.364C31.2453 61.612 30.7213 61.808 30.1053 61.952C29.4893 62.096 28.8493 62.168 28.1853 62.168C27.2893 62.168 26.5253 62.06 25.8933 61.844C25.2693 61.628 24.7973 61.328 24.4773 60.944C24.1653 60.56 24.0093 60.116 24.0093 59.612C24.0093 59.172 24.1293 58.784 24.3693 58.448C24.6093 58.112 24.9413 57.852 25.3653 57.668C25.0373 57.5 24.7853 57.268 24.6093 56.972C24.4413 56.668 24.3573 56.336 24.3573 55.976C24.3573 55.512 24.5013 55.088 24.7893 54.704C25.0853 54.32 25.5333 54.012 26.1333 53.78C26.7333 53.548 27.4733 53.432 28.3533 53.432C28.9053 53.432 29.4493 53.484 29.9853 53.588C30.5213 53.692 30.9933 53.832 31.4013 54.008L30.7533 55.784C30.0093 55.456 29.2413 55.292 28.4493 55.292C27.8813 55.292 27.4573 55.368 27.1773 55.52C26.8973 55.664 26.7573 55.868 26.7573 56.132C26.7573 56.612 27.1053 56.852 27.8013 56.852H30.1773V58.664H27.6453C27.2373 58.664 26.9293 58.732 26.7213 58.868C26.5133 58.996 26.4093 59.188 26.4093 59.444C26.4093 59.716 26.5613 59.928 26.8653 60.08C27.1693 60.232 27.6413 60.308 28.2813 60.308C28.7373 60.308 29.2053 60.248 29.6853 60.128C30.1733 60 30.5973 59.828 30.9573 59.612L31.6773 61.364ZM38.9835 56.24C38.2795 55.848 37.5635 55.588 36.8355 55.46V62H34.4595V55.46C33.7155 55.588 32.9995 55.848 32.3115 56.24L31.5195 54.512C32.1035 54.16 32.7475 53.892 33.4515 53.708C34.1635 53.524 34.8955 53.432 35.6475 53.432C36.3995 53.432 37.1275 53.524 37.8315 53.708C38.5435 53.892 39.1915 54.16 39.7755 54.512L38.9835 56.24ZM46.9054 56.24C46.2014 55.848 45.4854 55.588 44.7574 55.46V62H42.3814V55.46C41.6374 55.588 40.9214 55.848 40.2334 56.24L39.4414 54.512C40.0254 54.16 40.6694 53.892 41.3734 53.708C42.0854 53.524 42.8174 53.432 43.5694 53.432C44.3214 53.432 45.0494 53.524 45.7534 53.708C46.4654 53.892 47.1134 54.16 47.6974 54.512L46.9054 56.24ZM56.1713 53.6V59.3C56.1713 60.148 56.0033 60.876 55.6673 61.484C55.3313 62.084 54.8513 62.536 54.2273 62.84C53.6113 63.152 52.8793 63.308 52.0313 63.308C51.2873 63.308 50.6113 63.212 50.0033 63.02C49.4033 62.836 48.8873 62.572 48.4553 62.228L49.3433 60.512C49.7273 60.792 50.1393 61.004 50.5793 61.148C51.0193 61.292 51.4713 61.364 51.9353 61.364C52.5753 61.364 53.0433 61.208 53.3393 60.896C53.6433 60.584 53.7953 60.096 53.7953 59.432V59.048C53.2593 59.696 52.5033 60.02 51.5273 60.02C50.4713 60.02 49.6593 59.72 49.0913 59.12C48.5233 58.512 48.2393 57.644 48.2393 56.516V53.6H50.6152V56.36C50.6152 56.928 50.7433 57.356 50.9993 57.644C51.2633 57.924 51.6433 58.064 52.1393 58.064C52.6433 58.064 53.0433 57.916 53.3393 57.62C53.6433 57.324 53.7953 56.864 53.7953 56.24V53.6H56.1713ZM64.9456 59.768H63.6496V62H61.2736V53.6H65.1136C65.8736 53.6 66.5336 53.728 67.0936 53.984C67.6536 54.232 68.0856 54.592 68.3896 55.064C68.6936 55.528 68.8456 56.076 68.8456 56.708C68.8456 57.316 68.7016 57.848 68.4136 58.304C68.1336 58.752 67.7296 59.104 67.2016 59.36L69.0136 62H66.4696L64.9456 59.768ZM66.4456 56.708C66.4456 56.316 66.3216 56.012 66.0736 55.796C65.8256 55.58 65.4576 55.472 64.9696 55.472H63.6496V57.932H64.9696C65.4576 57.932 65.8256 57.828 66.0736 57.62C66.3216 57.404 66.4456 57.1 66.4456 56.708ZM74.3924 62.168C73.5044 62.168 72.7044 61.98 71.9924 61.604C71.2884 61.228 70.7324 60.708 70.3244 60.044C69.9244 59.38 69.7244 58.632 69.7244 57.8C69.7244 56.968 69.9244 56.22 70.3244 55.556C70.7324 54.892 71.2884 54.372 71.9924 53.996C72.7044 53.62 73.5044 53.432 74.3924 53.432C75.2804 53.432 76.0764 53.62 76.7804 53.996C77.4924 54.372 78.0484 54.892 78.4484 55.556C78.8564 56.22 79.0604 56.968 79.0604 57.8C79.0604 58.632 78.8564 59.38 78.4484 60.044C78.0484 60.708 77.4924 61.228 76.7804 61.604C76.0764 61.98 75.2804 62.168 74.3924 62.168ZM74.3924 60.2C74.8164 60.2 75.2004 60.1 75.5444 59.9C75.8884 59.7 76.1604 59.42 76.3604 59.06C76.5604 58.692 76.6604 58.272 76.6604 57.8C76.6604 57.328 76.5604 56.912 76.3604 56.552C76.1604 56.184 75.8884 55.9 75.5444 55.7C75.2004 55.5 74.8164 55.4 74.3924 55.4C73.9684 55.4 73.5844 55.5 73.2404 55.7C72.8964 55.9 72.6244 56.184 72.4244 56.552C72.2244 56.912 72.1244 57.328 72.1244 57.8C72.1244 58.272 72.2244 58.692 72.4244 59.06C72.6244 59.42 72.8964 59.7 73.2404 59.9C73.5844 60.1 73.9684 60.2 74.3924 60.2ZM84.5408 62.168C83.6528 62.168 82.8528 61.98 82.1408 61.604C81.4368 61.228 80.8808 60.708 80.4728 60.044C80.0728 59.38 79.8728 58.632 79.8728 57.8C79.8728 56.968 80.0728 56.22 80.4728 55.556C80.8808 54.892 81.4368 54.372 82.1408 53.996C82.8528 53.62 83.6528 53.432 84.5408 53.432C85.4288 53.432 86.2248 53.62 86.9288 53.996C87.6408 54.372 88.1968 54.892 88.5968 55.556C89.0048 56.22 89.2088 56.968 89.2088 57.8C89.2088 58.632 89.0048 59.38 88.5968 60.044C88.1968 60.708 87.6408 61.228 86.9288 61.604C86.2248 61.98 85.4288 62.168 84.5408 62.168ZM84.5408 60.2C84.9648 60.2 85.3488 60.1 85.6928 59.9C86.0368 59.7 86.3088 59.42 86.5088 59.06C86.7088 58.692 86.8088 58.272 86.8088 57.8C86.8088 57.328 86.7088 56.912 86.5088 56.552C86.3088 56.184 86.0368 55.9 85.6928 55.7C85.3488 55.5 84.9648 55.4 84.5408 55.4C84.1168 55.4 83.7328 55.5 83.3888 55.7C83.0448 55.9 82.7728 56.184 82.5728 56.552C82.3728 56.912 82.2728 57.328 82.2728 57.8C82.2728 58.272 82.3728 58.692 82.5728 59.06C82.7728 59.42 83.0448 59.7 83.3888 59.9C83.7328 60.1 84.1168 60.2 84.5408 60.2ZM100.281 53.432C101.273 53.432 102.045 53.728 102.597 54.32C103.157 54.904 103.437 55.752 103.437 56.864V62H101.061V56.936C101.061 56.432 100.929 56.052 100.665 55.796C100.401 55.532 100.049 55.4 99.6093 55.4C99.1373 55.4 98.7613 55.54 98.4813 55.82C98.2093 56.092 98.0733 56.504 98.0733 57.056V62H95.6973V56.936C95.6973 56.432 95.5733 56.052 95.3253 55.796C95.0853 55.532 94.7533 55.4 94.3293 55.4C93.8733 55.4 93.5093 55.54 93.2373 55.82C92.9653 56.092 92.8293 56.504 92.8293 57.056V62H90.4533V53.6H92.7573V54.536C93.0133 54.176 93.3413 53.904 93.7413 53.72C94.1493 53.528 94.6213 53.432 95.1573 53.432C95.7093 53.432 96.1893 53.532 96.5973 53.732C97.0133 53.932 97.3493 54.224 97.6053 54.608C97.8933 54.224 98.2693 53.932 98.7333 53.732C99.1973 53.532 99.7133 53.432 100.281 53.432Z" fill="white"/>
<path d="M26.7 67.58V75H26.21V73.77C26.0033 74.1767 25.7133 74.49 25.34 74.71C24.9667 74.93 24.5433 75.04 24.07 75.04C23.5833 75.04 23.1433 74.9267 22.75 74.7C22.3567 74.4733 22.0467 74.16 21.82 73.76C21.6 73.36 21.49 72.9033 21.49 72.39C21.49 71.8767 21.6 71.42 21.82 71.02C22.0467 70.6133 22.3567 70.3 22.75 70.08C23.1433 69.8533 23.5833 69.74 24.07 69.74C24.5367 69.74 24.9533 69.85 25.32 70.07C25.6933 70.29 25.9867 70.5967 26.2 70.99V67.58H26.7ZM24.1 74.59C24.5 74.59 24.8567 74.4967 25.17 74.31C25.49 74.1233 25.74 73.8633 25.92 73.53C26.1067 73.1967 26.2 72.8167 26.2 72.39C26.2 71.9633 26.1067 71.5833 25.92 71.25C25.74 70.9167 25.49 70.6567 25.17 70.47C24.8567 70.2833 24.5 70.19 24.1 70.19C23.7 70.19 23.34 70.2833 23.02 70.47C22.7067 70.6567 22.4567 70.9167 22.27 71.25C22.09 71.5833 22 71.9633 22 72.39C22 72.8167 22.09 73.1967 22.27 73.53C22.4567 73.8633 22.7067 74.1233 23.02 74.31C23.34 74.4967 23.7 74.59 24.1 74.59ZM30.948 74.59C31.288 74.59 31.6014 74.53 31.888 74.41C32.1814 74.2833 32.4247 74.1 32.618 73.86L32.908 74.19C32.6814 74.47 32.398 74.6833 32.058 74.83C31.718 74.97 31.3447 75.04 30.938 75.04C30.418 75.04 29.9514 74.9267 29.538 74.7C29.1314 74.4733 28.8114 74.16 28.578 73.76C28.3514 73.36 28.238 72.9033 28.238 72.39C28.238 71.8767 28.3447 71.42 28.558 71.02C28.778 70.62 29.0814 70.3067 29.468 70.08C29.8547 69.8533 30.2914 69.74 30.778 69.74C31.2314 69.74 31.638 69.8467 31.998 70.06C32.3647 70.2667 32.6547 70.5567 32.868 70.93C33.088 71.2967 33.208 71.71 33.228 72.17L28.818 73.03C28.9447 73.51 29.198 73.89 29.578 74.17C29.958 74.45 30.4147 74.59 30.948 74.59ZM30.778 70.18C30.3847 70.18 30.0314 70.2733 29.718 70.46C29.4047 70.64 29.1614 70.8967 28.988 71.23C28.8147 71.5567 28.728 71.93 28.728 72.35C28.728 72.4233 28.7347 72.5267 28.748 72.66L32.728 71.88C32.6814 71.5667 32.5714 71.28 32.398 71.02C32.2247 70.76 31.998 70.5567 31.718 70.41C31.438 70.2567 31.1247 70.18 30.778 70.18ZM36.0948 75.04C35.6748 75.04 35.2748 74.9767 34.8948 74.85C34.5148 74.7233 34.2182 74.5633 34.0048 74.37L34.2348 73.97C34.4482 74.15 34.7215 74.3 35.0548 74.42C35.3948 74.54 35.7482 74.6 36.1148 74.6C36.6415 74.6 37.0282 74.5133 37.2748 74.34C37.5282 74.1667 37.6548 73.9267 37.6548 73.62C37.6548 73.4 37.5848 73.2267 37.4448 73.1C37.3115 72.9733 37.1448 72.88 36.9448 72.82C36.7448 72.76 36.4682 72.6967 36.1148 72.63C35.7015 72.5567 35.3682 72.4767 35.1148 72.39C34.8615 72.3033 34.6448 72.1633 34.4648 71.97C34.2848 71.7767 34.1948 71.51 34.1948 71.17C34.1948 70.7567 34.3648 70.4167 34.7048 70.15C35.0515 69.8767 35.5415 69.74 36.1748 69.74C36.5082 69.74 36.8382 69.7867 37.1648 69.88C37.4915 69.9733 37.7582 70.0967 37.9648 70.25L37.7348 70.65C37.5215 70.4967 37.2782 70.38 37.0048 70.3C36.7315 70.22 36.4515 70.18 36.1648 70.18C35.6782 70.18 35.3115 70.27 35.0648 70.45C34.8182 70.63 34.6948 70.8667 34.6948 71.16C34.6948 71.3933 34.7648 71.5767 34.9048 71.71C35.0448 71.8367 35.2148 71.9333 35.4148 72C35.6215 72.06 35.9082 72.1267 36.2748 72.2C36.6815 72.2733 37.0082 72.3533 37.2548 72.44C37.5082 72.52 37.7215 72.6533 37.8948 72.84C38.0682 73.0267 38.1548 73.2833 38.1548 73.61C38.1548 74.0433 37.9748 74.39 37.6148 74.65C37.2548 74.91 36.7482 75.04 36.0948 75.04ZM39.5502 69.78H40.0502V75H39.5502V69.78ZM39.8002 68.51C39.6869 68.51 39.5902 68.4733 39.5102 68.4C39.4302 68.32 39.3902 68.2233 39.3902 68.11C39.3902 67.9967 39.4302 67.9 39.5102 67.82C39.5902 67.74 39.6869 67.7 39.8002 67.7C39.9136 67.7 40.0102 67.74 40.0902 67.82C40.1702 67.8933 40.2102 67.9867 40.2102 68.1C40.2102 68.2133 40.1702 68.31 40.0902 68.39C40.0102 68.47 39.9136 68.51 39.8002 68.51ZM46.8577 69.78V74.44C46.8577 75.3067 46.6477 75.9467 46.2277 76.36C45.8077 76.7733 45.1743 76.98 44.3277 76.98C43.8477 76.98 43.3943 76.9067 42.9677 76.76C42.541 76.6133 42.1977 76.41 41.9377 76.15L42.2077 75.77C42.4677 76.01 42.781 76.1967 43.1477 76.33C43.5143 76.4633 43.9043 76.53 44.3177 76.53C45.011 76.53 45.5243 76.3633 45.8577 76.03C46.191 75.7033 46.3577 75.1933 46.3577 74.5V73.62C46.1443 74 45.8477 74.2933 45.4677 74.5C45.0877 74.7067 44.661 74.81 44.1877 74.81C43.701 74.81 43.2577 74.7033 42.8577 74.49C42.4643 74.27 42.1543 73.9667 41.9277 73.58C41.701 73.1933 41.5877 72.7567 41.5877 72.27C41.5877 71.7833 41.701 71.3467 41.9277 70.96C42.1543 70.5733 42.4643 70.2733 42.8577 70.06C43.2577 69.8467 43.701 69.74 44.1877 69.74C44.6677 69.74 45.101 69.8467 45.4877 70.06C45.8743 70.2733 46.171 70.5733 46.3777 70.96V69.78H46.8577ZM44.2277 74.36C44.6343 74.36 45.001 74.2733 45.3277 74.1C45.6543 73.92 45.9077 73.6733 46.0877 73.36C46.2743 73.04 46.3677 72.6767 46.3677 72.27C46.3677 71.8633 46.2743 71.5033 46.0877 71.19C45.9077 70.8767 45.6543 70.6333 45.3277 70.46C45.001 70.28 44.6343 70.19 44.2277 70.19C43.821 70.19 43.4543 70.28 43.1277 70.46C42.8077 70.6333 42.5543 70.8767 42.3677 71.19C42.1877 71.5033 42.0977 71.8633 42.0977 72.27C42.0977 72.6767 42.1877 73.04 42.3677 73.36C42.5543 73.6733 42.8077 73.92 43.1277 74.1C43.4543 74.2733 43.821 74.36 44.2277 74.36ZM51.5241 69.74C52.1774 69.74 52.6941 69.93 53.0741 70.31C53.4541 70.69 53.6441 71.2367 53.6441 71.95V75H53.1441V71.99C53.1441 71.4033 52.9941 70.9567 52.6941 70.65C52.4007 70.3433 51.9874 70.19 51.4541 70.19C50.8407 70.19 50.3574 70.3733 50.0041 70.74C49.6507 71.1067 49.4741 71.6 49.4741 72.22V75H48.9741V69.78H49.4541V70.91C49.6341 70.5433 49.9007 70.2567 50.2541 70.05C50.6141 69.8433 51.0374 69.74 51.5241 69.74ZM59.5909 75.04C59.1709 75.04 58.7709 74.9767 58.3909 74.85C58.0109 74.7233 57.7143 74.5633 57.5009 74.37L57.7309 73.97C57.9443 74.15 58.2176 74.3 58.5509 74.42C58.8909 74.54 59.2443 74.6 59.6109 74.6C60.1376 74.6 60.5243 74.5133 60.7709 74.34C61.0243 74.1667 61.1509 73.9267 61.1509 73.62C61.1509 73.4 61.0809 73.2267 60.9409 73.1C60.8076 72.9733 60.6409 72.88 60.4409 72.82C60.2409 72.76 59.9643 72.6967 59.6109 72.63C59.1976 72.5567 58.8643 72.4767 58.6109 72.39C58.3576 72.3033 58.1409 72.1633 57.9609 71.97C57.7809 71.7767 57.6909 71.51 57.6909 71.17C57.6909 70.7567 57.8609 70.4167 58.2009 70.15C58.5476 69.8767 59.0376 69.74 59.6709 69.74C60.0043 69.74 60.3343 69.7867 60.6609 69.88C60.9876 69.9733 61.2543 70.0967 61.4609 70.25L61.2309 70.65C61.0176 70.4967 60.7743 70.38 60.5009 70.3C60.2276 70.22 59.9476 70.18 59.6609 70.18C59.1743 70.18 58.8076 70.27 58.5609 70.45C58.3143 70.63 58.1909 70.8667 58.1909 71.16C58.1909 71.3933 58.2609 71.5767 58.4009 71.71C58.5409 71.8367 58.7109 71.9333 58.9109 72C59.1176 72.06 59.4043 72.1267 59.7709 72.2C60.1776 72.2733 60.5043 72.3533 60.7509 72.44C61.0043 72.52 61.2176 72.6533 61.3909 72.84C61.5643 73.0267 61.6509 73.2833 61.6509 73.61C61.6509 74.0433 61.4709 74.39 61.1109 74.65C60.7509 74.91 60.2443 75.04 59.5909 75.04ZM65.4763 74.67C65.3497 74.79 65.1897 74.8833 64.9963 74.95C64.8097 75.01 64.613 75.04 64.4063 75.04C63.953 75.04 63.603 74.9167 63.3563 74.67C63.1097 74.4167 62.9863 74.0667 62.9863 73.62V68.64H63.4863V69.78H65.1463V70.21H63.4863V73.57C63.4863 73.91 63.5663 74.17 63.7263 74.35C63.893 74.5233 64.1363 74.61 64.4563 74.61C64.783 74.61 65.053 74.5133 65.2663 74.32L65.4763 74.67ZM71.4347 69.78V75H70.9547V73.88C70.7814 74.2467 70.5247 74.5333 70.1847 74.74C69.8447 74.94 69.4447 75.04 68.9847 75.04C68.3047 75.04 67.7714 74.85 67.3847 74.47C66.998 74.09 66.8047 73.5433 66.8047 72.83V69.78H67.3047V72.79C67.3047 73.3767 67.4547 73.8233 67.7547 74.13C68.0547 74.4367 68.478 74.59 69.0247 74.59C69.6114 74.59 70.0747 74.4067 70.4147 74.04C70.7614 73.6733 70.9347 73.18 70.9347 72.56V69.78H71.4347ZM78.1941 67.58V75H77.7041V73.77C77.4975 74.1767 77.2075 74.49 76.8341 74.71C76.4608 74.93 76.0375 75.04 75.5641 75.04C75.0775 75.04 74.6375 74.9267 74.2441 74.7C73.8508 74.4733 73.5408 74.16 73.3141 73.76C73.0941 73.36 72.9841 72.9033 72.9841 72.39C72.9841 71.8767 73.0941 71.42 73.3141 71.02C73.5408 70.6133 73.8508 70.3 74.2441 70.08C74.6375 69.8533 75.0775 69.74 75.5641 69.74C76.0308 69.74 76.4475 69.85 76.8141 70.07C77.1875 70.29 77.4808 70.5967 77.6941 70.99V67.58H78.1941ZM75.5941 74.59C75.9941 74.59 76.3508 74.4967 76.6641 74.31C76.9841 74.1233 77.2341 73.8633 77.4141 73.53C77.6008 73.1967 77.6941 72.8167 77.6941 72.39C77.6941 71.9633 77.6008 71.5833 77.4141 71.25C77.2341 70.9167 76.9841 70.6567 76.6641 70.47C76.3508 70.2833 75.9941 70.19 75.5941 70.19C75.1941 70.19 74.8341 70.2833 74.5141 70.47C74.2008 70.6567 73.9508 70.9167 73.7641 71.25C73.5841 71.5833 73.4941 71.9633 73.4941 72.39C73.4941 72.8167 73.5841 73.1967 73.7641 73.53C73.9508 73.8633 74.2008 74.1233 74.5141 74.31C74.8341 74.4967 75.1941 74.59 75.5941 74.59ZM80.3022 69.78H80.8022V75H80.3022V69.78ZM80.5522 68.51C80.4389 68.51 80.3422 68.4733 80.2622 68.4C80.1822 68.32 80.1422 68.2233 80.1422 68.11C80.1422 67.9967 80.1822 67.9 80.2622 67.82C80.3422 67.74 80.4389 67.7 80.5522 67.7C80.6655 67.7 80.7622 67.74 80.8422 67.82C80.9222 67.8933 80.9622 67.9867 80.9622 68.1C80.9622 68.2133 80.9222 68.31 80.8422 68.39C80.7622 68.47 80.6655 68.51 80.5522 68.51ZM84.9496 75.04C84.4563 75.04 84.0096 74.9267 83.6096 74.7C83.2163 74.4733 82.9063 74.16 82.6796 73.76C82.4529 73.3533 82.3396 72.8967 82.3396 72.39C82.3396 71.8833 82.4529 71.43 82.6796 71.03C82.9063 70.6233 83.2163 70.3067 83.6096 70.08C84.0096 69.8533 84.4563 69.74 84.9496 69.74C85.4429 69.74 85.8863 69.8533 86.2796 70.08C86.6796 70.3067 86.9929 70.6233 87.2196 71.03C87.4463 71.43 87.5596 71.8833 87.5596 72.39C87.5596 72.8967 87.4463 73.3533 87.2196 73.76C86.9929 74.16 86.6796 74.4733 86.2796 74.7C85.8863 74.9267 85.4429 75.04 84.9496 75.04ZM84.9496 74.59C85.3496 74.59 85.7063 74.4967 86.0196 74.31C86.3396 74.1233 86.5896 73.8633 86.7696 73.53C86.9563 73.1967 87.0496 72.8167 87.0496 72.39C87.0496 71.9633 86.9563 71.5833 86.7696 71.25C86.5896 70.9167 86.3396 70.6567 86.0196 70.47C85.7063 70.2833 85.3496 70.19 84.9496 70.19C84.5496 70.19 84.1896 70.2833 83.8696 70.47C83.5563 70.6567 83.3063 70.9167 83.1196 71.25C82.9396 71.5833 82.8496 71.9633 82.8496 72.39C82.8496 72.8167 82.9396 73.1967 83.1196 73.53C83.3063 73.8633 83.5563 74.1233 83.8696 74.31C84.1896 74.4967 84.5496 74.59 84.9496 74.59Z" fill="white"/>
</svg>
