<svg width="34" height="34" viewBox="0 0 34 34" xmlns="http://www.w3.org/2000/svg">
<path d="M31.1239 9.15705C30.3929 10.1322 29.5092 10.9828 28.507 11.6761C28.507 11.9309 28.507 12.1856 28.507 12.4545C28.5151 17.0805 26.6672 21.5162 23.3778 24.7673C20.0884 28.0184 15.6326 29.8128 11.0092 29.7483C8.33632 29.7573 5.69768 29.1469 3.29996 27.9652C3.17067 27.9087 3.08729 27.7808 3.08778 27.6397V27.484C3.08778 27.2808 3.25244 27.1161 3.45556 27.1161C6.08293 27.0295 8.61656 26.1185 10.698 24.5121C8.31986 24.4642 6.18015 23.0554 5.19544 20.8891C5.1457 20.7708 5.16119 20.6351 5.23631 20.531C5.31142 20.427 5.43531 20.3696 5.56322 20.3797C6.28599 20.4523 7.01598 20.385 7.71332 20.1815C5.08806 19.6366 3.11547 17.4571 2.83316 14.7896C2.82313 14.6616 2.88047 14.5377 2.98448 14.4625C3.08849 14.3874 3.22413 14.3719 3.34239 14.4216C4.0469 14.7325 4.80741 14.8962 5.57736 14.9028C3.27702 13.393 2.28342 10.5212 3.1585 7.91166C3.24883 7.65809 3.46585 7.47077 3.7298 7.41853C3.99376 7.3663 4.26572 7.45685 4.44573 7.65692C7.54991 10.9607 11.8151 12.9294 16.342 13.1479C16.226 12.6852 16.169 12.2097 16.1723 11.7327C16.2146 9.23153 17.7622 7.00341 20.0905 6.09149C22.4188 5.17957 25.0671 5.76433 26.7954 7.57201C27.9736 7.34757 29.1126 6.95184 30.1762 6.39739C30.2541 6.34875 30.3529 6.34875 30.4308 6.39739C30.4794 6.47533 30.4794 6.57418 30.4308 6.65213C29.9156 7.83185 29.0453 8.82132 27.9412 9.48254C28.9081 9.37042 29.8579 9.14235 30.7703 8.80324C30.8471 8.75095 30.9481 8.75095 31.0249 8.80324C31.0893 8.83269 31.1374 8.88899 31.1565 8.95716C31.1755 9.02533 31.1636 9.09845 31.1239 9.15705Z"/>
</svg>
